<svg xmlns="http://www.w3.org/2000/svg" viewBox="0 0 269 234.5"><defs><style>.cls-1{isolation:isolate;}.cls-2{fill:#fff;}.cls-3{fill:#e93e32;}.cls-4,.cls-5{fill:#231f20;opacity:0.2;}.cls-4{mix-blend-mode:multiply;}.cls-6{fill:#922723;}.cls-7{fill:#e83d32;}.cls-8{fill:#ffde17;}</style></defs><title>Artboard 25</title><g class="cls-1"><g id="Layer_1" data-name="Layer 1"><path class="cls-2" d="M141.67,160.85a3,3,0,0,0,3.69-.16c4.42-3.78,6.82-9.7,8.13-15a3,3,0,0,0,2-1.32c3.12-4.85,3-10.46,1.71-15.5a3,3,0,0,0,1.66-3.3c-1.37-6.84-7.12-13.12-10.24-16.11,10.43-16.21,10.18-23.8,10.11-24.65a3,3,0,0,0-1.85-2.54A30.8,30.8,0,0,0,145.12,80a49.29,49.29,0,0,0-19.57,4.54,25.54,25.54,0,0,0-17.14-6.85c-.79,0-1.23,0-1.23,0a3,3,0,0,0-2.41,1.72q-1.35-.25-2.65-.44C100,75.2,94.25,68.23,80.74,67.47H80.6c-.75,0-1.5-.07-2.29-.07h-.19a3,3,0,0,0-2.9,2.28c-.29,1.15-2.47,10.4-.83,17.71-3.57,2-4.57,3.86-4.84,4.9A3,3,0,0,0,72.46,96a2.94,2.94,0,0,0,.62-.06l.44-.09-1.33,5.36a23.48,23.48,0,0,0-10.34,6.56,3,3,0,0,0-.26,3.46,24.34,24.34,0,0,0-6.84,11.63,3,3,0,0,0,1.66,3.3,13.09,13.09,0,0,0,5.78,14.17l.33.16A43.14,43.14,0,0,0,71,153a3.07,3.07,0,0,0,2.13.87,3,3,0,0,0,.93-.15,32.34,32.34,0,0,0,4.64,4.4,3,3,0,0,0,1.72.59A57.8,57.8,0,0,0,77.29,168a7.93,7.93,0,0,0-2.38-.1,9.08,9.08,0,0,0-7.34,6.62,16.89,16.89,0,0,0,.06,8.38,44.61,44.61,0,0,0,4.52,12.06,9.83,9.83,0,0,0-1.89.34A8.16,8.16,0,0,0,65,199.94a6.23,6.23,0,0,0,.28,5.56A3,3,0,0,0,67.9,207h84.65a3,3,0,0,0,2.6-1.51,6.23,6.23,0,0,0,.28-5.56,8.17,8.17,0,0,0-5.23-4.68,9.74,9.74,0,0,0-1.89-.33,44.6,44.6,0,0,0,4.52-12.07,16.89,16.89,0,0,0,.06-8.38,9.08,9.08,0,0,0-7.34-6.62,7.9,7.9,0,0,0-.87,0,8,8,0,0,0-1.52.15,73.06,73.06,0,0,0-2.16-7.68l0,0A3,3,0,0,0,141.67,160.85ZM72,201a5.33,5.33,0,0,1,2.26,0Zm8.95-3.7a38.64,38.64,0,0,1-7.41-15.72,11.49,11.49,0,0,1-.17-5.4,3.21,3.21,0,0,1,2.25-2.37,2,2,0,0,1,.57,0,51.92,51.92,0,0,0-.51,11.31,3,3,0,0,0,3,2.72h2.46s0,.07,0,.1c0,4,3.06,7.53,8.14,10a24.47,24.47,0,0,0-2.56,3H80.92l.06-.08A3,3,0,0,0,80.9,197.31Z"/><path class="cls-3" d="M78.61,184.88s-2-21,12.65-37.84H131.1s10.88,14,11,37.84Z"/><path class="cls-4" d="M83.18,159.89s25.75,10.77,53.75-1.93A49.58,49.58,0,0,0,131.1,147H91.26a49.22,49.22,0,0,0-6.56,9.66Z"/><ellipse class="cls-3" cx="109.47" cy="187.97" rx="25.4" ry="11.06"/><path class="cls-5" d="M89,188.74s3.12-8.65-8.89-19.48L79.22,174l7.56,14Z"/><path class="cls-3" d="M88.8,190.79c1-5.94-2.6-11.67-6.64-16.14-1.83-2-4.2-4.11-6.92-3.81a6.11,6.11,0,0,0-4.8,4.5,14,14,0,0,0,.12,6.89,41.59,41.59,0,0,0,8,17c-2.41-.87-5-1.73-7.48-1s-4.43,3.65-3.16,5.87h78.22"/><path class="cls-3" d="M149.4,198.14c-2.47-.69-5.07.16-7.48,1a41.59,41.59,0,0,0,8-17,14,14,0,0,0,.12-6.89,6.11,6.11,0,0,0-4.8-4.5c-2.72-.3-5.09,1.77-6.92,3.81-4,4.48-7.64,10.2-6.64,16.14l-19.75,4.56a72,72,0,0,1-.3,8.67h40.94C153.83,201.79,151.87,198.83,149.4,198.14Z"/><path class="cls-6" d="M111.07,181.66H111c-2.91-.05-5.12-2.67-5.8-5.23a15.85,15.85,0,0,1,0-6.52c-2.09,2.32-4.29,4.57-6.56,6.7A10.21,10.21,0,0,1,95.07,179a4,4,0,0,1-4.28-.87c-.85-1-1.07-2.41-.68-4.4a20.3,20.3,0,0,1,10.41-14,.42.42,0,1,1,.39.74,19.72,19.72,0,0,0-10,13.38c-.34,1.72-.18,2.93.49,3.69a3.21,3.21,0,0,0,3.38.63A9.54,9.54,0,0,0,98,176c2.6-2.44,5.12-5,7.47-7.73a.42.42,0,0,1,.72.35c-.42,2.4-.89,5.11-.23,7.6.6,2.26,2.51,4.56,5,4.61s4.34-2.07,5.08-4a16.86,16.86,0,0,0,.49-7.18.42.42,0,0,1,.83-.11,10.17,10.17,0,0,0,5.24,7,5.23,5.23,0,0,0,4.87.31c1.89-1.07,2.22-3.57,2.27-4.6.26-5.22-3.11-10-6.07-13.6a.42.42,0,0,1,.64-.53c3.06,3.71,6.53,8.66,6.26,14.17-.06,1.16-.44,4-2.69,5.28a6,6,0,0,1-5.66-.3,11,11,0,0,1-4.7-4.77,12.88,12.88,0,0,1-.69,4.57C116,179.29,113.88,181.66,111.07,181.66Z"/><path class="cls-6" d="M89.1,203.85a.42.42,0,0,1-.34-.66c3-4.18,6-6.2,9-6,3.39.24,5.82,3.17,7,4.86l1.36-23.65a.42.42,0,1,1,.83,0l-1.44,25a.42.42,0,0,1-.79.17c0-.05-2.77-5.29-7-5.58-2.72-.19-5.52,1.7-8.29,5.63A.42.42,0,0,1,89.1,203.85Z"/><path class="cls-6" d="M133.2,203.85a.42.42,0,0,1-.34-.18c-2.78-3.93-5.56-5.82-8.29-5.63-4.21.29-7,5.53-7,5.58a.42.42,0,0,1-.79-.17l-1.44-25a.42.42,0,1,1,.83,0l1.36,23.65c1.13-1.69,3.57-4.62,7-4.86,3-.21,6.08,1.8,9,6a.42.42,0,0,1-.34.66Z"/><path class="cls-5" d="M140.53,172.5s-5.85,6-7.9,10.71c0,0,1.23-7.55,7.18-12.41Z"/><polygon class="cls-2" points="114.98 155.32 138.54 144.4 143.05 114.86 144.33 105.46 153.37 87.69 147.94 83.54 131.9 87.15 114.44 95.67 92 78.93 80.63 70.46 81.92 94.62 71.5 113.58 75.22 132.62 92.98 152.07 114.98 155.32"/><path class="cls-7" d="M61.49,121.23c-6.46,11.78,2.13,16.5,2.13,16.5-.35-.66-.16-4-.16-4,1.89,9.62,9.63,17.13,9.63,17.13a57.38,57.38,0,0,1-1.07-7c1.32,6.52,8.47,11.84,8.47,11.84-.83-.92-1.74-6.66-1.74-6.66A24.92,24.92,0,0,0,87,158.46a13.13,13.13,0,0,0,2.67,1.41l1.06.39h0l-.06,0A23.64,23.64,0,0,1,95.82,162c-6.29-2.93-3.91-1.27,0-.92,2.88.26,4.78.91,7.34.33,5.33-1.22,10.64-2.27,16-3.18,5.9-1,9.39-2.58,14.72-4.42l3.37-.62c2-1.52,3.95-2.95,6.06-4.29.34-.22.7-.4,1.06-.59a60.54,60.54,0,0,0,2.6-6.64c.51,1.38.14,3.6-.43,5.65a17.18,17.18,0,0,1,2.8-.75l.06-.1a6.42,6.42,0,0,1,.87-1l-.35.18a35.11,35.11,0,0,0,1.72-12.09c1.91,2.22,1.3,9.19,1.3,9.19,6.79-10.57-5.13-26.42-5.13-26.42,3.2,2,8.08,9.82,8.08,9.82-1.68-8.36-11.22-16.19-11.22-16.19,11.64-17.35,11-24.91,11-24.91-14.32-5.91-30.83,3.18-30.83,3.18a22.45,22.45,0,0,0-17.48-7.45c3.7.89,6.83,4.3,6.83,4.3a73,73,0,0,0-14.17-3.25c-1.13-2.72-6-11.48-22-11.42,0,0-2.91,11.75-.13,18.56C72.94,91.12,72.46,93,72.46,93L77.58,92l-2.91,11.71a20.64,20.64,0,0,0-10.52,6c1.18-.69,5.05-.29,5.05-.29a22.35,22.35,0,0,0-11.52,14.06A5.63,5.63,0,0,1,61.49,121.23Zm70.72-29s10.75-6.54,18-3.46c0,0-3.11,10-8.57,14.11C141.61,102.85,137.6,96.07,132.2,92.19ZM91,112.93c1.51-8.15,9.16-18.92,15.9-17.67s10,14,8.51,22.2-8.2,13.74-14.94,12.49S89.49,121.08,91,112.93Zm-3.33,10.75c5.36,2.44-7.31,5.76-7.31,5.76A24.14,24.14,0,0,1,77,122.08C76.34,118.65,82.31,121.24,87.67,123.68ZM82.1,75c8.93,1,14,8,12.58,8.44-3.21,1-11.6,7-11.6,7C79.27,86,82.1,75,82.1,75Z"/><path class="cls-7" d="M152.07,133.81s-.11,17.28-8.66,24.61c0,0,2.83-7.14,3-10.45,0,0-3.69,13.54-23.77,16.83A23.94,23.94,0,0,0,132,157.5s-25.82,13.16-44.56,1.24l36.74-9.26s16.7-15.77,17.1-15.82S152.07,133.81,152.07,133.81Z"/><path class="cls-2" d="M100.81,145.78a.4.4,0,0,1-.16,0,12.45,12.45,0,0,0-10.19,0,.4.4,0,0,1-.39-.71A13,13,0,0,1,101,145a.4.4,0,0,1-.16.78Z"/><path class="cls-2" d="M102.12,149.2a.4.4,0,0,1-.33-.17c-.1-.15-2.53-3.66,1.23-8.51a.4.4,0,1,1,.64.49c-3.39,4.38-1.23,7.52-1.21,7.55a.4.4,0,0,1-.09.56A.41.41,0,0,1,102.12,149.2Z"/><path class="cls-2" d="M89.1,149.2a.4.4,0,0,1-.33-.64c.09-.13,2.16-3.19-1.21-7.55a.4.4,0,1,1,.64-.49c3.76,4.85,1.33,8.36,1.23,8.51A.4.4,0,0,1,89.1,149.2Z"/><path class="cls-2" d="M124.5,154.68a14.89,14.89,0,0,1-6.84-1.66.4.4,0,0,1,.37-.72,14,14,0,1,0-6.48-17.9.4.4,0,0,1-.74-.31,14.85,14.85,0,1,1,13.69,20.59Z"/><ellipse class="cls-4" cx="120.57" cy="227.41" rx="98.51" ry="4.64"/><path d="M58.61,192.37,52.11,219s68.28,23.61,113.14-1.58l-5.59-24.23S118.65,215,58.61,192.37Z"/><ellipse cx="108.17" cy="43.96" rx="6.98" ry="4.47" transform="translate(-3.33 9.3) rotate(-4.85)"/><path d="M109.3,41.57A1.53,1.53,0,0,1,108,39.19a17.29,17.29,0,0,0-4.91-24,13.53,13.53,0,0,0-18.74,3.84,10.53,10.53,0,0,0,3,14.57,8.12,8.12,0,0,0,11.23-2.3A1.53,1.53,0,0,1,101.14,33a11.19,11.19,0,0,1-15.48,3.17A13.6,13.6,0,0,1,81.8,17.39a16.59,16.59,0,0,1,23-4.71,20.36,20.36,0,0,1,5.78,28.2A1.53,1.53,0,0,1,109.3,41.57Z"/><path d="M77.88,203.49c-17.75-91.83-8.22-130.61,2.89-147,6.19-9.11,12-10.08,12.29-10.13L94,49.1l-.29-1.51.3,1.5c-.1,0-10.21,2.34-16.92,22.12-6.29,18.55-10.74,56.46,3.8,131.69Z"/><path d="M99.15,206.63C88,63.43,103.89,45.71,104.58,45l2.2,2.13c-.64.72-15.48,19.16-4.57,159.23Z"/><path d="M125.52,207.27l-3-.33C135.29,88,114,48.21,113.83,47.82l2.68-1.49C117.41,47.95,138.44,87.36,125.52,207.27Z"/><path d="M145.15,201.68l-3-.83c10-35.47,18.94-85.49,4.85-122.39-8.31-21.77-20.8-28.6-20.92-28.67l1.44-2.71c.55.29,13.63,7.45,22.35,30.28C157.86,98.16,163.48,136.62,145.15,201.68Z"/><path d="M110.87,211.43,60.36,198.88l-.27-.79a303.57,303.57,0,0,1-11.4-49.51c-5.13-36.52-1.42-64,11-81.56C69.92,52.64,85.9,45.25,107.24,45a83.21,83.21,0,0,1,25.95,3.59,50.7,50.7,0,0,1,16.2,8.86c1.38,1.1,2.75,2.34,4.09,3.55,3.9,3.52,7.93,7.16,12.76,8.15a13.87,13.87,0,0,0,13.33-5.41,8.9,8.9,0,0,0,.63-10c-1.26-2.23-3.3-3.82-5.45-5.51a31.16,31.16,0,0,1-4.7-4.23A13.75,13.75,0,0,1,167,33.81a13.47,13.47,0,0,1,4.88-9.25,7.79,7.79,0,0,1,6.49-1.68c3.39.79,5.38,4,6.74,6.67,4,7.87,8.69,12.85,13.63,14.42a8.42,8.42,0,0,0,6.8-.59c3.09-1.68,5.76-5.45,7-9.82,1.73-6.32,2-16-3.06-22.53a11.2,11.2,0,0,0-6.58-4.28,10.47,10.47,0,0,0-8.54,2.5C189,13.72,188.53,20.48,191.41,24c1.54,2,3.76,4.12,5.79,3.16,2.67-1.26,4.49-7,3.53-11.19a1.53,1.53,0,0,1,3-.68c1.16,5.09-.86,12.59-5.21,14.65-1.75.82-5.31,1.4-9.5-4-4.83-5.87-2.07-14.44,3.29-19a13.56,13.56,0,0,1,11.08-3.17,14.08,14.08,0,0,1,8.44,5.42c5.72,7.41,5.51,18.21,3.6,25.21C214,39.59,210.83,44,207,46.06a11.52,11.52,0,0,1-9.2.82c-5.82-1.85-11-7.22-15.43-16-1.06-2.09-2.55-4.56-4.7-5.06A4.74,4.74,0,0,0,173.76,27,10.4,10.4,0,0,0,170,34.1,10.67,10.67,0,0,0,172.39,42a28.45,28.45,0,0,0,4.25,3.8c2.29,1.79,4.67,3.65,6.23,6.41a11.92,11.92,0,0,1-.82,13.35c-3.66,5-10.57,7.81-16.43,6.61-5.66-1.16-10-5.08-14.2-8.88-1.36-1.23-2.64-2.39-3.95-3.43a47.66,47.66,0,0,0-15.22-8.33,80.18,80.18,0,0,0-25-3.45c-20.3.19-35.46,7.15-45,20.68-27.24,38.46-2.37,118.68.5,127.52l48.05,11.94,46-14.09c1.4-4.72,2.49-9.62,3.55-14.37l.46-2c.22-1,.43-2,.64-3,.93-4.47,1.9-9.09,4-13.15a14.88,14.88,0,0,1,12.83-8.42c4.26-.12,9.86,1.53,11.76,6.56,1.61,4.28.2,8.24-1.16,12.06-1,2.86-2,5.56-1.65,8.27a8,8,0,0,0,4,6,7,7,0,0,0,6.55.2,7.53,7.53,0,0,0,4.36-6,12.23,12.23,0,0,0-1.65-7.36,3,3,0,0,0-1.15-1.06,1.79,1.79,0,0,0-1.91.35,6.6,6.6,0,0,0-1,2.79,1.53,1.53,0,0,1-1.6,2.59,2.5,2.5,0,0,1-1.4-1.89c-.34-1.88,1-4.77,1.82-5.63a4.84,4.84,0,0,1,5.37-1,6,6,0,0,1,2.39,2.1c2.26,3.23,2.29,7.57,2.19,9.28a10.56,10.56,0,0,1-6.13,8.64,10.18,10.18,0,0,1-9.33-.3,11.05,11.05,0,0,1-5.53-8.35c-.41-3.42.72-6.59,1.81-9.67,1.23-3.46,2.39-6.72,1.18-10-1.33-3.53-5.59-4.66-8.81-4.58A11.85,11.85,0,0,0,168.14,163c-1.89,3.69-2.81,8.11-3.7,12.38-.21,1-.43,2-.65,3l-.46,2c-1.13,5.06-2.29,10.3-3.84,15.37l-.24.78Z"/><ellipse class="cls-7" cx="111.61" cy="103.68" rx="2.25" ry="4.47"/><ellipse class="cls-2" cx="89.33" cy="103.68" rx="4.79" ry="2.24" transform="translate(-35.98 158.7) rotate(-72.96)"/><path class="cls-8" d="M266.79,160.1s-8,21-13.84,27l-9.87,2.26s6.32,0,9.35-.84c0,0-20.33,20.55-41.88,16.15l4.86,2.79-5-1.07-2.61,4,.24-5.19-4.91-2.58,3.64.34,1-4.8,1.58,3.83s4.93-17.94,27-25.23c0,0-4.55,6.45-4.75,9.47,0,0,4.31-9.45,8.39-10.65C240,175.55,258.25,170.39,266.79,160.1Z"/><path class="cls-2" d="M262.67,165.55S247.88,192,196.59,209.28l-.64-2.47S230,203.63,262.67,165.55Z"/><path class="cls-8" d="M2,91.57s5.46,9.5,8.74,11.92l4.93.33a22.2,22.2,0,0,1-4.57.31s11.37,8.33,21.4,4.56l-2.13,1.72,2.33-.9,1.57,1.74-.51-2.48L36,107.14l-1.73.44-.86-2.23-.47,2S29.16,99.06,18,97.25c0,0,2.68,2.76,3,4.19,0,0-2.8-4.22-4.86-4.48C16.13,97,6.95,95.87,2,91.57Z"/><path class="cls-2" d="M4.45,93.88s9.15,11.6,35.17,16l.12-1.24S23.08,109.71,4.45,93.88Z"/></g></g></svg>