<svg xmlns="http://www.w3.org/2000/svg" xmlns:xlink="http://www.w3.org/1999/xlink">
    
    <symbol id="HEADER_LOGO" viewBox="0 0 60 80">
        <defs>
            <linearGradient id="linearGradient1" x1="25.72" y1="46.74" x2="25.72" y2="88.51" gradientUnits="userSpaceOnUse">
                <stop offset="0" stop-color="#fff" stop-opacity="0.3"/>
                <stop offset="0.02" stop-color="#fff" stop-opacity="0.28"/>
                <stop offset="0.28" stop-color="#fff" stop-opacity="0.13"/>
                <stop offset="0.48" stop-color="#fff" stop-opacity="0.04"/>
                <stop offset="0.6" stop-color="#fff" stop-opacity="0"/>
            </linearGradient>
            <linearGradient id="linearGradient2" x1="44.44" y1="52.59" x2="44.44" y2="93.72" gradientUnits="userSpaceOnUse">
                <stop offset="0" stop-color="#fff" stop-opacity="0.2"/>
                <stop offset="0.14" stop-color="#fff" stop-opacity="0.13"/>
                <stop offset="0.36" stop-color="#fff" stop-opacity="0.04"/>
                <stop offset="0.5" stop-color="#fff" stop-opacity="0"/>
            </linearGradient>
        </defs>
        <title>Artboard 9</title>
        <ellipse opacity="0.05" cx="30.69" cy="48.43" rx="24.63" ry="3.38"/>
        <g id="S">
            <g id="Kasten">
                <path fill="#fff" d="M38.51,30.34a27.55,27.55,0,0,0-7-3.78,28.32,28.32,0,0,1-5.36-2.87q-6-4.18-6-10.37a10.63,10.63,0,0,1,2.25-6.89,10.19,10.19,0,0,1,.86-.94l-8.55,2A4.62,4.62,0,0,0,11.18,13l7.08,30.59A4.62,4.62,0,0,0,23.79,47l3.51-.81L27,46.16a33.76,33.76,0,0,1-6.78-2.92l3.66-8.18a16.3,16.3,0,0,0,10.4,3.66c4,0,6-1.43,6-4.27A5.26,5.26,0,0,0,38.51,30.34Z"/>
                <path fill="#fff" d="M57.85,34.45,50.77,3.86A4.62,4.62,0,0,0,45.23.4L40.08,1.59q.89.14,1.76.33A28.13,28.13,0,0,1,48.5,4.31l-3,8c-2.24-1.92-5.37-2.88-9.37-2.88q-5.38,0-5.39,4.28a3.86,3.86,0,0,0,1.77,3,36.82,36.82,0,0,0,7.56,3.66,23.64,23.64,0,0,1,6.39,3.55,12.68,12.68,0,0,1,2,2A12.35,12.35,0,0,1,51,33.75a11.85,11.85,0,0,1-2.45,7.58L54.38,40A4.61,4.61,0,0,0,57.85,34.45Z"/>
            </g>
        </g>
        <g id="S-2" data-name="S">
            <g id="Kasten-2" data-name="Kasten">
                <path fill='rgb(255, 255, 255, 0.2)' d="M34.35,55.2a16.34,16.34,0,0,0-10.43,3.66l-3.67-8.19a33.83,33.83,0,0,1,6.8-2.93l.27-.07-3.51-.81a4.63,4.63,0,0,0-5.55,3.47L11.18,81a4.63,4.63,0,0,0,3.47,5.55l8.56,2a10.22,10.22,0,0,1-.86-.95,10.66,10.66,0,0,1-2.25-6.9q0-6.2,6-10.39a28.38,28.38,0,0,1,5.37-2.88,27.61,27.61,0,0,0,7.06-3.79,5.27,5.27,0,0,0,1.81-4.12C40.37,56.63,38.37,55.2,34.35,55.2Z"/>
                <path fill='rgb(255, 255, 255, 0.2)' d="M54.47,53.93l-5.84-1.35a11.87,11.87,0,0,1,2.46,7.6,12.37,12.37,0,0,1-2.56,7.87,12.71,12.71,0,0,1-2,2,23.69,23.69,0,0,1-6.41,3.56,36.89,36.89,0,0,0-7.57,3.66,3.87,3.87,0,0,0-1.78,3q0,4.28,5.4,4.29c4,0,7.15-1,9.39-2.89l3,8a28.19,28.19,0,0,1-6.67,2.4q-.87.19-1.76.33L45.3,93.6a4.63,4.63,0,0,0,5.55-3.46l7.09-30.66A4.62,4.62,0,0,0,54.47,53.93Z"/>
            </g>
        </g>
    </symbol>

    <symbol id="HEADER__ICON_ARTICLES"  data-name="Layer 1" width="100%" height="100%" viewBox="0 0 230 275">
        <defs>
            <style>.cls-1{fill:#fff;}.cls-2{fill:#cccbcb;}.cls-3{fill:#838585;}</style>
        </defs>
        <title>Artboard 1 copy 2</title>
        <rect class="cls-1" fill='#fff' x="31.5" y="15.25" width="167" height="243.5" rx="16.38" ry="16.38" transform="matrix(1, 0, 0, 1, 0.36, -0.3)"/>
        <path class="cls-2" fill='#cccbcb' d="M53.37,46l123.73.32A7.73,7.73,0,0,1,184.82,54l-.38,142.74a7.73,7.73,0,0,1-7.76,7.71L53,204.17a7.73,7.73,0,0,1-7.71-7.75l.37-142.73A7.73,7.73,0,0,1,53.37,46Z"/>
        <rect class="cls-3" fill='#838585' x="111.13" y="20.41" width="8.68" height="111.29" transform="translate(39 191.25) rotate(-89.8)"/>
        <polygon class="cls-3" fill='#838585' points="59.7 99.5 59.73 90.82 171.03 91.1 170.99 99.78 59.7 99.5"/>
        <polygon class="cls-3" fill='#838585' points="59.73 120.23 59.77 111.56 171.06 111.83 171.03 120.51 59.73 120.23"/>
        <polygon class="cls-3" fill='#838585' points="59.55 141.6 59.58 132.93 170.87 133.2 170.84 141.88 59.55 141.6"/>
        <polygon class="cls-3" fill='#838585' points="59.92 161.94 59.95 153.26 115.59 153.4 115.56 162.08 59.92 161.94"/>
        <path class="cls-2" fill='#cccbcb' d="M94.81,35.32a4.34,4.34,0,0,1,.68-8.63l35.4.26a4.34,4.34,0,0,1-.06,8.67l-35.4-.26A3.71,3.71,0,0,1,94.81,35.32Z"/>
        <circle class="cls-2" fill='#cccbcb' cx="116.71" cy="232.14" r="9.73" transform="translate(-130.17 313.16) rotate(-81.48)"/>
    </symbol>

    <symbol id="HEADER__ICON_BOOKS" data-name="Layer 1" viewBox="0 0 230 275">
        <defs>
            <style>.cls-1{fill:#f0f8fa;}.cls-2{fill:#a6ddee;}.cls-3{fill:#0ab0d0;}.cls-4{fill:#1d99b7;}</style>
        </defs>
        <title>Artboard 1 copy 3</title>
        <polygon class="cls-1" fill='#f0f8fa' points="209.23 241.72 29.4 243.09 29.36 193.31 208.72 189.87 209.23 241.72"/>
        <path class="cls-2" fill='#a6ddee' d="M29.39,228.63l165.43-1.7A38.19,38.19,0,0,0,209,221.36l-.14-14.81a25.91,25.91,0,0,1-14.71,9.12l-164.8,1.67Z"/>
        <path class="cls-3" fill='#0ab0d0' d="M199.38,252.26l-164,0a15.79,15.79,0,0,1-15.69-16.1l2-198.4a16.07,16.07,0,0,1,15.91-16l156.74-.08A15.81,15.81,0,0,1,210,37.8l-1.26,151.43a16.06,16.06,0,0,1-16,16l-144.09-1a16.06,16.06,0,0,0-16,16l0,3a15.81,15.81,0,0,0,15.78,16.15l142.9-1v-.07s14.93.1,18.16-13.65l-.06,17.41A10.08,10.08,0,0,1,199.38,252.26Z"/>
        <path class="cls-4" fill='#1d99b7' d="M75.46,239.23l-27.1.18a15.81,15.81,0,0,1-15.78-16.15l0-3a16.06,16.06,0,0,1,16-16l26.53.19L73.63,21.76l-36.07,0a16.07,16.07,0,0,0-15.91,16l-2,198.4a15.8,15.8,0,0,0,15.69,16.1H75.57Z"/>
    </symbol>

    <symbol id="HEADER__ICON_EVENTS" data-name="Layer 1" xmlns="http://www.w3.org/2000/svg" viewBox="0 0 230 275">
        <defs>
            <style>.cls-1{fill:#d8c426;}.cls-2{fill:#fff;}</style>
        </defs>
        <title>Artboard 1 copy</title>
        <path class="cls-1" fill='#d8c426' d="M157.51,11.65l-85.14-.07A74.76,74.76,0,0,1,38.8,50.23l-.14,173.42a74.76,74.76,0,0,1,33.52,38.7l85.14.07a74.76,74.76,0,0,1,33.58-38.65L191,50.35A74.76,74.76,0,0,1,157.51,11.65Z"/>
        <path class="cls-2" fill='#fff' d="M165.4,56.45,64.81,56.37l-.13,161.75,100.59.08ZM161.21,185l-92.41-.07L68.87,89l92.41.07Zm.1-124.47,0,24.45-92.41-.08,0-24.45ZM68.79,189l92.41.07,0,25L68.77,214Z"/>
        <polygon class="cls-2" fill='#fff' points="114.87 102.19 118.43 113.17 129.97 113.18 120.63 119.96 124.19 130.94 114.85 124.14 105.51 130.92 109.09 119.95 99.75 113.16 111.3 113.16 114.87 102.19"/>
        <polygon class="cls-2" fill='#fff' points="114.84 143.07 118.4 154.05 129.94 154.06 120.59 160.84 124.15 171.82 114.82 165.03 105.48 171.8 109.05 160.83 99.72 154.04 111.26 154.05 114.84 143.07"/>
    </symbol>

    <symbol id="HEADER__ICON_JOBS" data-name="Layer 1" xmlns="http://www.w3.org/2000/svg" viewBox="0 0 230 275">
        <defs>
            <style>.cls-1{fill:#6d6e70;}.cls-2{fill:#fff;}.cls-3{fill:#e43b2c;}</style>
        </defs>
        <title>Artboard 1</title>
        <polygon class="cls-1" fill='#6d6e70' points="100.51 177.34 93.56 260.79 131.4 267.61 133.04 171.2 100.51 177.34"/>
        <rect class="cls-2" fill='#fff' x="10.36" y="12.45" width="210" height="164.79" rx="26.66" ry="26.66" transform="translate(-0.56 0.68) rotate(-0.34)"/>
        <path class="cls-3" fill='#e43b2c' d="M65,114.59a18.5,18.5,0,0,1-7.65-1.41,15.17,15.17,0,0,1-5.49-4,17.53,17.53,0,0,1-3.33-6,24.06,24.06,0,0,1-1.16-7.37,24.49,24.49,0,0,1,.51-5.25,15.43,15.43,0,0,1,2-4.89,21,21,0,0,1,2.7-3.59,13.45,13.45,0,0,1,3.32-2.55A14.93,14.93,0,0,1,60,78.06a25.15,25.15,0,0,1,5.11-.51,20.2,20.2,0,0,1,7.2,1.15,14.39,14.39,0,0,1,5.46,3.49,15.58,15.58,0,0,1,3.46,5.72,24,24,0,0,1,1.24,7.86,24.62,24.62,0,0,1-.94,7,16.86,16.86,0,0,1-3.07,6A15.15,15.15,0,0,1,73,113,19.1,19.1,0,0,1,65,114.59Zm.26-6.72q4.88,0,7.24-3.24T74.83,96a16,16,0,0,0-.61-4.32A10.53,10.53,0,0,0,72.41,88a8.93,8.93,0,0,0-3.06-2.5A9.31,9.31,0,0,0,65,84.63a10.08,10.08,0,0,0-4.35.93,7.54,7.54,0,0,0-3,2.6,14.37,14.37,0,0,0-.83,1.37,9.17,9.17,0,0,0-.65,1.58,12.28,12.28,0,0,0-.43,2.13,23.29,23.29,0,0,0-.14,3q0,5.67,2.56,8.69A8.61,8.61,0,0,0,65.27,107.88Z"/>
        <path class="cls-3" fill='#e43b2c' d="M88,93.84l-.1-12.28a4.61,4.61,0,0,1,.33-1.81,2.94,2.94,0,0,1,1.62-1.4,13.14,13.14,0,0,1,3.74-.9,60.49,60.49,0,0,1,6.72-.34A26,26,0,0,1,108,78a14.91,14.91,0,0,1,5.19,2.64,10.1,10.1,0,0,1,2.94,3.86,11.93,11.93,0,0,1,1,4.61q0,5.78-3.6,8.61T103,100.65c-.91,0-1.66,0-2.26,0l-1.55-.09-1.13-.1a9.94,9.94,0,0,0-1,0,1,1,0,0,0-.79.24,1,1,0,0,0-.2.66c0,.14,0,.64,0,1.5s0,1.81,0,2.86,0,2.07,0,3,0,1.68,0,2.1a2.24,2.24,0,0,1-.88,1.9,5.25,5.25,0,0,1-3.09.7,5.29,5.29,0,0,1-3.29-.68,2.34,2.34,0,0,1-.83-1.86Zm8.13-.27a1.77,1.77,0,0,0,1.19,1.65,11.12,11.12,0,0,0,4.23.51c2.73,0,4.74-.55,6-1.59A5,5,0,0,0,109.47,90a5.07,5.07,0,0,0-2.4-4.71,13,13,0,0,0-6.68-1.36,12.2,12.2,0,0,0-2.23.18,3.21,3.21,0,0,0-1.33.5,1.62,1.62,0,0,0-.63.85,3.82,3.82,0,0,0-.15,1.18Z"/>
        <path class="cls-3" fill='#e43b2c' d="M130.12,99a1,1,0,0,0-1,.41,1.74,1.74,0,0,0-.23.92c0,.32,0,.85,0,1.6s0,1.57,0,2.44a1.91,1.91,0,0,0,.67,1.72,3.7,3.7,0,0,0,2,.4h1.52l2.52,0,3,0c1.05,0,2,0,3,0l2.52,0h1.52a2.1,2.1,0,0,1,1.87.71,5.55,5.55,0,0,1,.52,2.83,4.56,4.56,0,0,1-.43,2.34,1.86,1.86,0,0,1-1.7.72h-3.33q-2.59,0-6,0l-3.6,0q-2,0-3.78.06l-3.2.05h-1.91a4.41,4.41,0,0,1-1.32-.15,1.59,1.59,0,0,1-.74-.47,1.51,1.51,0,0,1-.35-.73,4.48,4.48,0,0,1-.09-.89c0-.32,0-1.11,0-2.39s0-2.75,0-4.41,0-3.36,0-5.09,0-3.23,0-4.49,0-2.64-.06-4.14,0-3-.06-4.34,0-2.61-.05-3.7,0-1.84,0-2.25a2.91,2.91,0,0,1,.49-1.84,2.86,2.86,0,0,1,2.22-.65l6.93,0c2.27,0,4.35,0,6.22,0l4.75,0h2.52a2.13,2.13,0,0,1,1.73.67,4.25,4.25,0,0,1,.6,2.62,4,4,0,0,1-.61,2.53,2.6,2.6,0,0,1-2.14.8l-1.13,0c-.61,0-1.36,0-2.26,0s-1.84,0-2.86,0-2,0-2.94,0-1.8,0-2.57,0l-1.62,0A1.53,1.53,0,0,0,129,85.91l0,5.77a2,2,0,0,0,.35,1.31,1.75,1.75,0,0,0,1.39.41l13.54-.11a2.13,2.13,0,0,1,1.71.59,3.68,3.68,0,0,1,.52,2.23,4.16,4.16,0,0,1-.41,2.1,1.75,1.75,0,0,1-1.62.69Z"/>
        <path class="cls-3" fill='#e43b2c' d="M155.84,112.88a2.74,2.74,0,0,1-1.95-.66,2.32,2.32,0,0,1-.75-1.78c0-.17,0-.61,0-1.29s0-1.5,0-2.47,0-2,0-3.2,0-2.33,0-3.49,0-2.26,0-3.31,0-1.94,0-2.68c0-1.08,0-2.29-.06-3.62s0-2.58-.05-3.75,0-2.18-.05-3,0-1.35,0-1.52a5.49,5.49,0,0,1,.89-3.41c.61-.81,1.78-1.22,3.53-1.24a6.54,6.54,0,0,1,2.1.27,4.55,4.55,0,0,1,1.45.77A6,6,0,0,1,162,79.67c.32.45.64.94,1,1.46s.64,1.07,1.27,2.06,1.37,2.17,2.2,3.53l2.68,4.33q1.44,2.3,2.72,4.5l1.91,3.23,1.15,2a7.38,7.38,0,0,0,.61,1c.14.18.26.26.37.26s.37-.21.36-.63-.05-1.65-.13-3.59-.14-4.33-.16-7.16c0-2.1,0-3.71-.06-4.82s-.05-2-.07-2.63,0-1.15-.07-1.55,0-.94,0-1.6a2.57,2.57,0,0,1,.62-1.87,2.8,2.8,0,0,1,2.09-.68h1.42a3,3,0,0,1,2,.57,2.44,2.44,0,0,1,.73,2l.22,27.93a5.28,5.28,0,0,1-1,3.54c-.69.83-2,1.25-3.92,1.27a5.13,5.13,0,0,1-3.58-1.15,12.68,12.68,0,0,1-2.44-3.05q-.43-.68-1.43-2.34l-2.23-3.71-2.48-4.13q-1.25-2.09-2.1-3.6-1.23-2.15-1.89-3.45t-1-2a8.48,8.48,0,0,0-.51-.94.44.44,0,0,0-.36-.23c-.18,0-.26.18-.26.53s0,1.47.1,3.25.11,4,.14,6.77c0,.28,0,.95,0,2s0,2.2.05,3.46,0,2.48.06,3.67,0,2.06,0,2.62a2.1,2.1,0,0,1-.88,1.9,4,4,0,0,1-2.2.59Z"/>
    </symbol>

    <symbol id="HEADER__ICON_MEMBERSHIP" viewBox="0 0 230 275">
        <defs>
            <style>
            .cls-1{isolation:isolate}.cls-2{fill:#961f1f}.cls-3{fill:none;stroke:#bbbdbf;stroke-linecap:round;stroke-miterlimit:10;stroke-width:4.1px}.cls-4{fill:#fff}.cls-5{fill:#231f20;opacity:.2;mix-blend-mode:multiply}
            </style>
        </defs>
        <title>
            Membership
        </title>
        <g class="cls-1" isolation="isolate">
            <g id="Layer_1" data-name="Layer 1">
            <path class="cls-2" fill='#961f1f' d="M115.94 39.98l73.7 14.35-73 17.94-.7-32.29z"/>
            <path class="cls-3" fill='none' stroke='#bbbdbf' stroke-linecap='round' stroke-miterlimit='10' stroke-width='4.1px' d="M116.4 36.53v47.54"/>
            <path class="cls-2" fill='#961f1f' d="M18.77 196.82v43.4S46.45 253.65 89 258.27c26.11-18.13 28.08-43 28.08-43s2 24.87 28.12 43a253 253 0 0 0 70.23-18.09v-44.53z"/>
            <path class="cls-4" fill='#fff' d="M5.27 194.4s113.27 47.12 220 0v-22.2s-80.73-49.13-108.87-91.75c0 0-53.07 67.06-111.13 94z"/>
            <path class="cls-2" fill='#961f1f' d="M5.27 174.47v19.93a244 244 0 0 0 25.87 8.5v-21.55c62.62-26.54 85.26-100.9 85.26-100.9S63.33 147.51 5.27 174.47zM126.86 215.28a278.28 278.28 0 0 0 42.32-4l-1.38-20s-42.31-59.22-51.4-110.83c0 0 6.19 81.56 10.46 113.33z"/>
            <path class="cls-5" fill='#231f20' opacity='.2' mix-blend-mode='multiply' d="M225.27 194.38V172.2c-78.64 47.12-220 2.27-220 2.27v19.93s113.28 47.12 220-.02z"/>
            </g>
        </g>
    </symbol>


    <symbol id="SEARCH__BY" version="1.1"  x="0px" y="0px" viewBox="0 0 130 18" style="enable-background:new 0 0 130 18;" xml:space="preserve">
        <style type="text/css">
            .st0{fill:#FFFFFF;}
            .st1{fill:#E33A2C;}
        </style>
        <title>search-by-algolia</title>
        <desc>Created with Sketch.</desc>
        <path id="Shape" class="st0" fill="#FFFFFF" d="M59.4,0h13.3c1.3,0,2.4,1.1,2.4,2.4v13.2c0,1.3-1.1,2.4-2.4,2.4H59.4c-1.3,0-2.4-1.1-2.4-2.4V2.4
            C57,1.1,58.1,0,59.4,0z"/>
        <path id="Shape_1_" class="st1" fill="#E33A2C" d="M66.3,4.6c-2.8,0-5.1,2.3-5.1,5.1s2.3,5.1,5.1,5.1c2.8,0,5.1-2.3,5.1-5.1S69.1,4.6,66.3,4.6z
            M66.3,13.2c-2,0-3.6-1.6-3.6-3.6s1.6-3.6,3.6-3.6c2,0,3.6,1.6,3.6,3.6S68.2,13.2,66.3,13.2z M66.3,6.8v2.7c0,0.1,0.1,0.1,0.2,0.1
            l2.4-1.2c0.1,0,0.1-0.1,0-0.1c-0.5-0.9-1.4-1.4-2.5-1.5C66.3,6.7,66.3,6.7,66.3,6.8z M62.9,4.8l-0.3-0.3c-0.3-0.3-0.8-0.3-1.1,0
            l-0.4,0.4c-0.3,0.3-0.3,0.8,0,1.1l0.3,0.3c0,0,0.1,0,0.2,0C61.8,6,62,5.8,62.2,5.6c0.2-0.2,0.5-0.4,0.7-0.6C63,5,63,4.9,62.9,4.8z
            M67.9,4V3.4c0-0.4-0.4-0.8-0.8-0.8h-1.8c-0.4,0-0.8,0.3-0.8,0.8V4c0,0.1,0.1,0.1,0.1,0.1c0.5-0.1,1-0.2,1.6-0.2
            c0.5,0,1,0.1,1.5,0.2C67.9,4.2,67.9,4.1,67.9,4z"/>
        <path id="Shape_2_" class="st0" fill="#FFFFFF" d="M102.2,13.8c0,1.5-0.4,2.5-1.1,3.2c-0.8,0.7-1.9,1-3.4,1c-0.6,0-1.7-0.1-2.7-0.3l0.3-1.7
            c0.8,0.2,1.8,0.2,2.4,0.2c0.9,0,1.5-0.2,1.8-0.5c0.4-0.3,0.5-0.9,0.5-1.6v-0.3c-0.2,0.1-0.5,0.2-0.8,0.3c-0.3,0.1-0.7,0.2-1.2,0.2
            c-0.6,0-1.1-0.1-1.6-0.3c-0.5-0.2-0.9-0.5-1.3-0.8c-0.3-0.4-0.6-0.8-0.8-1.4c-0.2-0.5-0.3-1.5-0.3-2.2c0-0.7,0.1-1.5,0.3-2.1
            c0.2-0.6,0.5-1,0.9-1.4c0.4-0.4,0.9-0.7,1.4-0.9c0.6-0.2,1.2-0.4,1.9-0.4c0.7,0,1.3,0.1,2,0.2c0.6,0.1,1.2,0.2,1.6,0.3V13.8
            L102.2,13.8z M96.2,9.6c0,0.9,0.2,1.9,0.6,2.3c0.4,0.4,0.9,0.6,1.5,0.6c0.3,0,0.7,0,1-0.1c0.3-0.1,0.5-0.2,0.7-0.3V6.7
            c-0.2,0-0.8-0.2-1.4-0.2c-0.8,0-1.4,0.3-1.8,0.8C96.4,7.8,96.2,8.7,96.2,9.6z M112.3,9.6c0,0.7-0.1,1.3-0.3,1.9
            c-0.2,0.6-0.5,1.1-0.9,1.5c-0.4,0.4-0.9,0.7-1.4,1c-0.5,0.2-1.4,0.4-1.8,0.4c-0.4,0-1.3-0.1-1.8-0.4c-0.5-0.2-1-0.6-1.4-1
            c-0.4-0.4-0.7-0.9-0.9-1.5c-0.2-0.6-0.3-1.1-0.3-1.9c0-0.7,0.1-1.4,0.3-2s0.5-1.1,0.9-1.5c0.4-0.4,0.9-0.7,1.4-1
            c0.5-0.2,1.1-0.3,1.8-0.3s1.2,0.1,1.8,0.3c0.5,0.2,1,0.6,1.4,1c0.4,0.4,0.7,0.9,0.9,1.5C112.2,8.1,112.3,8.8,112.3,9.6z M110.1,9.6
            c0-0.9-0.2-1.7-0.6-2.2c-0.4-0.5-0.9-0.8-1.7-0.8c-0.7,0-1.3,0.3-1.7,0.8s-0.6,1.3-0.6,2.2c0,0.9,0.2,1.6,0.6,2.1
            c0.4,0.5,0.9,0.8,1.7,0.8c0.7,0,1.3-0.3,1.7-0.8C109.9,11.1,110.1,10.5,110.1,9.6z M117.1,14.3c-3.5,0-3.5-2.8-3.5-3.3l0-10.1
            l2.1-0.3v10c0,0.3,0,1.9,1.4,1.9V14.3z M120.9,14.3h-2.2V5.1l2.2-0.3V14.3z M119.8,3.7c0.7,0,1.3-0.6,1.3-1.3s-0.6-1.3-1.3-1.3
            c-0.7,0-1.3,0.6-1.3,1.3S119.1,3.7,119.8,3.7z M126.2,4.7c0.7,0,1.3,0.1,1.8,0.3c0.5,0.2,0.9,0.4,1.2,0.7c0.3,0.3,0.5,0.7,0.6,1.2
            c0.1,0.4,0.2,0.9,0.2,1.5v5.5c-0.3,0.1-0.8,0.2-1.5,0.3c-0.7,0.1-1.4,0.1-2.3,0.1c-0.6,0-1.1-0.1-1.5-0.2c-0.5-0.1-0.8-0.3-1.2-0.5
            c-0.3-0.2-0.6-0.5-0.8-0.9c-0.2-0.4-0.3-0.9-0.3-1.4c0-0.5,0.1-0.9,0.3-1.2c0.2-0.4,0.5-0.7,0.8-0.9c0.4-0.2,0.8-0.4,1.2-0.5
            c0.5-0.1,1-0.1,1.5-0.1c0.2,0,0.5,0,0.7,0c0.3,0,0.5,0.1,0.8,0.1V8.4c0-0.2,0-0.5-0.1-0.7c-0.1-0.2-0.2-0.4-0.3-0.6
            c-0.1-0.2-0.3-0.3-0.6-0.4c-0.2-0.1-0.5-0.2-0.9-0.2c-0.5,0-0.9,0.1-1.4,0.1c-0.4,0.1-0.8,0.2-1,0.2l-0.3-1.7
            c0.3-0.1,0.7-0.2,1.2-0.3C125.1,4.8,125.6,4.7,126.2,4.7z M126.4,12.5c0.7,0,1.1,0,1.5-0.1v-2.2c-0.1,0-0.3-0.1-0.5-0.1
            c-0.2,0-0.5-0.1-0.7-0.1c-0.2,0-0.5,0-0.7,0.1c-0.2,0-0.5,0.1-0.7,0.2c-0.2,0.1-0.4,0.2-0.5,0.4c-0.1,0.2-0.2,0.3-0.2,0.5
            c0,0.5,0.2,0.8,0.5,1C125.4,12.4,125.9,12.5,126.4,12.5z M84.1,4.8c0.7,0,1.3,0.1,1.8,0.3c0.5,0.2,0.9,0.4,1.2,0.7
            c0.3,0.3,0.5,0.7,0.6,1.2c0.1,0.4,0.2,0.9,0.2,1.5v5.5c-0.3,0.1-0.8,0.2-1.5,0.3c-0.7,0.1-1.4,0.1-2.3,0.1c-0.6,0-1.1-0.1-1.5-0.2
            c-0.5-0.1-0.8-0.3-1.2-0.5c-0.3-0.2-0.6-0.5-0.8-0.9c-0.2-0.4-0.3-0.9-0.3-1.4c0-0.5,0.1-0.9,0.3-1.2c0.2-0.4,0.5-0.7,0.8-0.9
            c0.4-0.2,0.8-0.4,1.2-0.5c0.5-0.1,1-0.1,1.5-0.1c0.2,0,0.5,0,0.7,0c0.3,0,0.5,0.1,0.8,0.1V8.4c0-0.2,0-0.5-0.1-0.7
            c-0.1-0.2-0.2-0.4-0.3-0.6C85.2,7,85,6.8,84.8,6.8c-0.2-0.1-0.5-0.2-0.9-0.2c-0.5,0-0.9,0.1-1.4,0.1c-0.4,0.1-0.8,0.2-1,0.2
            l-0.3-1.7c0.3-0.1,0.7-0.2,1.2-0.3C83,4.8,83.5,4.8,84.1,4.8z M84.3,12.5c0.7,0,1.1,0,1.5-0.1v-2.2c-0.1,0-0.3-0.1-0.5-0.1
            c-0.2,0-0.5-0.1-0.7-0.1c-0.2,0-0.5,0-0.7,0.1c-0.2,0-0.5,0.1-0.7,0.2c-0.2,0.1-0.4,0.2-0.5,0.4c-0.1,0.2-0.2,0.3-0.2,0.5
            c0,0.5,0.2,0.8,0.5,1C83.3,12.4,83.8,12.5,84.3,12.5z M93,14.3c-3.5,0-3.5-2.8-3.5-3.3l0-10.1l2.1-0.3v10c0,0.3,0,1.9,1.4,1.9V14.3
            L93,14.3z"/>
        <path id="Search-by" class="st0" fill="#FFFFFF" d="M5.6,11.9c0,0.7-0.3,1.2-0.8,1.6s-1.2,0.6-2.1,0.6S1.1,14,0.5,13.7v-1.2
            c0.4,0.2,0.7,0.3,1.1,0.4S2.5,13,2.8,13c0.5,0,0.9-0.1,1.1-0.3s0.4-0.5,0.4-0.8c0-0.3-0.1-0.5-0.3-0.7s-0.7-0.4-1.4-0.7
            c-0.7-0.3-1.2-0.6-1.5-1S0.6,8.7,0.6,8.1c0-0.7,0.2-1.2,0.7-1.5S2.4,6,3.2,6C4,6,4.7,6.2,5.4,6.5L5,7.6C4.3,7.3,3.7,7.1,3.2,7.1
            c-0.4,0-0.7,0.1-0.9,0.3C2,7.6,1.9,7.8,1.9,8.1c0,0.2,0,0.4,0.1,0.5s0.2,0.3,0.4,0.4S3,9.4,3.5,9.6c0.6,0.2,1,0.5,1.3,0.7
            s0.5,0.4,0.6,0.7S5.6,11.5,5.6,11.9z M9.5,14.1c-0.9,0-1.6-0.3-2.2-0.8S6.6,12,6.6,11.1c0-1,0.2-1.7,0.7-2.3S8.5,8,9.3,8
            c0.8,0,1.4,0.2,1.9,0.7s0.7,1.1,0.7,2v0.7h-4c0,0.6,0.2,1,0.5,1.3s0.7,0.5,1.2,0.5c0.4,0,0.7,0,1-0.1s0.6-0.2,1-0.3v1
            c-0.3,0.1-0.6,0.3-0.9,0.3S9.9,14.1,9.5,14.1z M9.3,8.9c-0.4,0-0.7,0.1-1,0.4S8,9.9,7.9,10.4h2.7c0-0.5-0.1-0.9-0.4-1.1
            S9.7,8.9,9.3,8.9z M17,14l-0.3-0.8h0c-0.3,0.4-0.6,0.6-0.9,0.7s-0.7,0.2-1.1,0.2c-0.6,0-1-0.2-1.4-0.5s-0.5-0.8-0.5-1.3
            c0-0.6,0.2-1.1,0.7-1.4s1.1-0.5,2.1-0.5l1,0v-0.3c0-0.4-0.1-0.7-0.3-0.9s-0.5-0.3-0.8-0.3c-0.3,0-0.6,0-0.9,0.1
            c-0.3,0.1-0.5,0.2-0.8,0.3l-0.4-0.9c0.3-0.2,0.7-0.3,1.1-0.4S15.3,8,15.6,8c0.8,0,1.3,0.2,1.7,0.5s0.6,0.8,0.6,1.6v4H17z M15.1,13.1
            c0.5,0,0.8-0.1,1.1-0.4s0.4-0.6,0.4-1.1v-0.5l-0.8,0c-0.6,0-1,0.1-1.3,0.3s-0.4,0.4-0.4,0.8c0,0.3,0.1,0.5,0.2,0.6
            S14.8,13.1,15.1,13.1z M22.7,8c0.3,0,0.5,0,0.6,0.1l-0.1,1.2c-0.2,0-0.4-0.1-0.6-0.1c-0.5,0-0.9,0.2-1.2,0.5s-0.5,0.8-0.5,1.3V14
            h-1.3V8.1h1l0.2,1h0.1c0.2-0.4,0.5-0.6,0.8-0.8S22.3,8,22.7,8z M26.8,14.1c-0.9,0-1.6-0.3-2-0.8s-0.7-1.3-0.7-2.3
            c0-1,0.2-1.8,0.7-2.3S26,8,26.9,8c0.6,0,1.2,0.1,1.7,0.3l-0.4,1c-0.5-0.2-1-0.3-1.3-0.3c-1,0-1.5,0.7-1.5,2c0,0.7,0.1,1.2,0.4,1.5
            s0.6,0.5,1.1,0.5c0.6,0,1.1-0.1,1.6-0.4v1.1C28.2,13.9,28,14,27.7,14S27.2,14.1,26.8,14.1z M35.1,14h-1.3v-3.7c0-0.5-0.1-0.8-0.3-1
            S33.1,9,32.7,9c-0.5,0-0.9,0.2-1.2,0.5s-0.4,0.8-0.4,1.6V14h-1.3V5.6h1.3v2.1c0,0.3,0,0.7-0.1,1.1h0.1c0.2-0.3,0.4-0.5,0.7-0.7
            C32.2,8,32.5,8,32.9,8c1.4,0,2.2,0.7,2.2,2.2V14z M42.7,8c0.7,0,1.3,0.3,1.7,0.8s0.6,1.3,0.6,2.3c0,1-0.2,1.7-0.6,2.3
            s-1,0.8-1.7,0.8c-0.8,0-1.3-0.3-1.8-0.8h-0.1L40.6,14h-0.9V5.6H41v2c0,0.1,0,0.4,0,0.7c0,0.3,0,0.5,0,0.6H41C41.4,8.2,42,8,42.7,8z
            M42.4,9c-0.5,0-0.9,0.1-1.1,0.4S41,10.2,41,10.9V11c0,0.7,0.1,1.2,0.3,1.6s0.6,0.5,1.1,0.5c0.4,0,0.8-0.2,1-0.5s0.3-0.9,0.3-1.5
            C43.8,9.7,43.3,9,42.4,9z M45.6,8.1H47l1.2,3.4c0.2,0.5,0.3,0.9,0.4,1.4h0c0-0.2,0.1-0.4,0.2-0.7s0.5-1.6,1.4-4h1.4L49,14.8
            c-0.5,1.2-1.2,1.9-2.3,1.9c-0.3,0-0.6,0-0.8-0.1v-1c0.2,0,0.4,0.1,0.6,0.1c0.6,0,1-0.4,1.3-1.1L48,14L45.6,8.1z"/>
    </symbol>

    <svg id="SETTINGS_IMAGE" fill="currentColor" xmlns="http://www.w3.org/2000/svg" xmlns:xlink="http://www.w3.org/1999/xlink" viewBox="0 0 24 24" enable-background="new 0 0 24 24">
        <g>
            <path d="m13.3 4.1c-.4-.1-.9-.1-1.3-.1-4.4.0-8 3.6-8 8s3.6 8 8 8c.4.0.9.0 1.3-.1 3.9-.6 6.7-4 6.7-7.9s-2.8-7.2-6.7-7.9zm-1.1 13.9c-.1.0-.1.0-.2.0-3.3.0-6-2.7-6-6s2.7-6 6-6c.1.0.1.0.2.0v12z"/>
        </g>
    </svg>
</svg>